<?xml version="1.0" standalone="no"?>
<!DOCTYPE svg PUBLIC "-//W3C//DTD SVG 20010904//EN"
 "http://www.w3.org/TR/2001/REC-SVG-20010904/DTD/svg10.dtd">
<svg version="1.0" xmlns="http://www.w3.org/2000/svg"
 width="1912.000000pt" height="1912.000000pt" viewBox="0 0 1912.000000 1912.000000"
 preserveAspectRatio="xMidYMid meet">
<metadata>
Created by potrace 1.11, written by Peter Selinger 2001-2013
</metadata>
<g transform="translate(0.000000,1912.000000) scale(0.100000,-0.100000)"
fill="#000000" stroke="none">
<path d="M10165 18893 c-149 -14 -325 -59 -441 -115 l-64 -31 0 -539 0 -540
23 5 c12 4 78 14 147 24 179 25 704 25 910 0 281 -35 555 -88 773 -151 84 -24
117 -30 117 -21 0 30 -43 228 -71 325 -83 290 -238 589 -404 780 -67 76 -141
116 -330 179 -229 75 -451 103 -660 84z"/>
<path d="M8840 18860 c-349 -26 -628 -146 -805 -348 -229 -262 -385 -606 -421
-931 -7 -61 -6 -64 12 -56 72 31 348 119 439 139 228 51 374 67 663 73 290 6
456 -3 692 -38 74 -11 143 -22 153 -25 16 -5 17 25 17 534 l0 539 -67 31
c-156 71 -412 102 -683 82z"/>
<path d="M7705 18729 c-185 -20 -429 -97 -730 -234 -88 -39 -193 -84 -233
-100 -90 -34 -206 -127 -402 -324 -214 -215 -364 -416 -465 -625 -46 -95 -109
-274 -100 -284 2 -2 43 17 91 41 275 137 645 246 994 293 135 19 507 25 616
11 l61 -8 6 69 c34 356 213 748 465 1013 45 48 82 89 82 92 0 13 -108 49 -172
57 -83 11 -102 11 -213 -1z"/>
<path d="M11280 18728 c-41 -5 -81 -11 -88 -13 -7 -3 16 -40 62 -99 163 -209
285 -456 371 -750 36 -125 75 -301 75 -341 0 -22 1 -22 229 -28 607 -18 1066
-109 1428 -282 l112 -54 -49 99 c-67 133 -136 250 -241 405 -134 199 -246 334
-433 520 -194 194 -308 277 -510 375 -304 147 -641 206 -956 168z"/>
<path d="M12758 18275 c292 -274 640 -766 781 -1103 l35 -82 38 0 c21 0 83 -7
137 -15 329 -49 661 -174 984 -368 59 -36 107 -63 107 -61 0 26 -272 391 -443
597 -340 408 -490 544 -817 742 -261 158 -656 323 -865 361 l-40 7 83 -78z"/>
<path d="M6380 18316 c-485 -115 -905 -329 -1250 -638 -141 -126 -287 -294
-372 -428 -84 -133 -231 -422 -279 -548 -9 -23 -8 -24 10 -11 397 290 775 439
1111 439 l98 0 7 43 c22 128 123 356 232 522 118 178 305 391 503 569 97 87
96 89 -60 52z"/>
<path d="M14245 17524 c308 -341 621 -758 740 -985 l39 -76 76 -6 c186 -14
420 -142 698 -380 63 -54 111 -93 106 -85 -18 30 -245 331 -335 444 -412 516
-809 898 -1116 1075 -91 52 -216 105 -267 115 l-40 7 99 -109z"/>
<path d="M4746 17464 c-694 -381 -1244 -915 -1537 -1493 -100 -196 -99 -220 1
-83 80 108 266 300 371 384 218 173 464 284 708 318 41 6 75 11 76 13 0 1 16
40 34 87 51 131 190 413 261 530 56 94 116 182 188 278 13 17 23 32 21 32 -2
0 -58 -30 -123 -66z"/>
<path d="M8322 16583 c-455 -515 -742 -962 -827 -1288 -18 -66 -24 -76 -114
-170 -458 -480 -904 -1213 -1222 -2010 -37 -93 -66 -171 -65 -173 4 -3 415 86
438 96 9 4 92 124 184 267 92 143 307 472 478 730 293 442 315 479 375 620 35
83 112 249 172 370 370 752 792 1307 1211 1592 l87 60 -277 22 c-152 12 -284
25 -293 27 -11 3 -58 -43 -147 -143z"/>
<path d="M9288 16317 c-254 -237 -605 -628 -835 -933 -127 -168 -305 -432
-419 -621 -191 -317 -410 -792 -505 -1091 l-32 -103 -128 -146 c-71 -80 -129
-149 -129 -152 0 -13 346 28 420 49 41 12 105 30 143 41 l67 20 81 160 c398
797 924 1536 1324 1863 l70 57 5 -1048 5 -1048 212 -3 212 -2 92 137 c656 980
1240 1712 1497 1875 l32 20 0 -99 c-1 -516 -50 -1676 -80 -1882 -6 -44 -6 -69
1 -77 22 -27 223 -56 462 -67 61 -3 68 -1 72 18 2 11 11 234 20 495 9 261 20
603 25 760 14 399 23 1550 13 1638 l-8 73 -193 75 c-107 41 -198 74 -202 74
-11 0 -405 -442 -669 -750 -458 -534 -764 -930 -914 -1180 l-39 -65 6 130 c13
288 49 1855 43 1861 -6 6 -431 53 -484 54 -14 0 -71 -46 -165 -133z"/>
<path d="M6670 16293 c-335 -35 -590 -103 -825 -218 -163 -81 -184 -97 -195
-155 -24 -131 -35 -435 -35 -1015 0 -742 19 -1095 80 -1520 22 -151 67 -354
90 -410 8 -18 6 -18 -21 3 -97 76 -1075 1036 -1064 1045 3 2 52 37 110 79 440
319 665 671 647 1013 -10 193 -81 338 -247 506 -142 144 -267 202 -435 202
-123 1 -198 -17 -323 -79 -184 -90 -422 -298 -435 -381 -17 -105 -37 -370 -43
-573 -18 -609 78 -1490 238 -2186 l21 -93 45 40 c42 36 119 69 164 69 24 0 23
11 -8 89 -51 127 -98 357 -159 772 -19 133 -34 243 -32 245 1 2 115 -113 252
-254 137 -141 332 -342 432 -446 l183 -188 183 36 c254 50 361 66 445 66 64 0
86 5 183 47 61 26 112 52 114 57 2 6 10 64 18 128 19 140 73 311 147 459 27
56 48 104 45 107 -3 3 -42 -5 -86 -17 -65 -18 -84 -20 -90 -10 -8 14 -31 132
-51 264 -6 44 -12 173 -12 287 -1 172 2 210 14 221 13 12 736 128 794 127 16
0 15 2 -5 19 -23 18 -24 25 -23 138 1 104 32 340 51 391 6 13 -10 15 -143 9
-243 -11 -484 -56 -596 -113 -27 -14 -51 -24 -53 -22 -6 6 -27 536 -23 612 l3
79 55 19 c226 78 507 131 697 132 l143 1 0 213 0 212 -107 -2 c-60 0 -124 -3
-143 -5z m-1926 -897 c60 -35 101 -106 116 -200 6 -39 15 -95 21 -125 50 -289
-91 -541 -387 -693 -83 -43 -273 -113 -281 -104 -8 8 -32 244 -43 426 -19 289
3 534 52 579 32 31 218 120 283 136 88 22 183 14 239 -19z"/>
<path d="M12227 15874 c10 -664 -28 -1409 -108 -2094 -19 -165 -53 -412 -65
-472 l-6 -28 119 0 c66 0 193 -7 282 -16 90 -8 165 -14 166 -12 4 3 135 862
135 880 0 7 27 8 83 3 171 -14 334 -56 529 -137 105 -43 93 -31 145 -154 2 -7
-124 -154 -281 -328 -157 -174 -286 -320 -286 -325 0 -4 26 -14 58 -21 97 -21
273 -77 344 -109 l67 -30 106 112 c84 88 108 109 115 97 5 -8 45 -76 88 -150
l79 -135 136 -12 c148 -13 255 -32 380 -69 45 -13 85 -24 89 -24 19 0 -29 196
-76 312 -62 154 -184 377 -272 499 l-33 46 131 147 c149 167 134 163 205 53
126 -194 253 -597 363 -1148 11 -55 13 -58 81 -103 38 -26 103 -78 143 -117
l74 -70 7 118 c15 229 -7 547 -56 808 -58 313 -193 733 -311 968 l-29 59 69
72 c221 233 416 565 492 839 l20 71 -27 39 c-40 58 -195 177 -230 177 -6 0
-50 -59 -98 -131 -115 -172 -264 -360 -431 -542 l-53 -57 -309 397 c-232 300
-311 409 -321 443 -7 25 -28 77 -46 117 -35 76 -70 110 -170 160 -105 54 -364
135 -348 110 4 -7 30 -46 58 -87 154 -227 345 -639 516 -1115 44 -124 70 -175
147 -299 92 -147 92 -149 74 -170 -10 -12 -63 -72 -117 -134 -54 -62 -101
-110 -105 -105 -4 4 -22 60 -40 123 -202 719 -587 1483 -935 1851 l-44 46
-168 7 c-92 3 -207 9 -255 12 l-87 7 6 -379z m600 -551 c150 -198 287 -411
372 -581 45 -90 107 -250 99 -257 -2 -3 -45 12 -94 34 -133 58 -281 103 -355
108 l-66 5 -6 272 c-5 240 -17 378 -43 504 -3 17 -4 32 -1 32 3 0 45 -53 94
-117z"/>
<path d="M6979 13450 c-76 -102 -170 -242 -166 -246 2 -2 53 6 113 19 l109 23
-3 55 c-2 30 -9 83 -15 119 l-12 65 -26 -35z"/>
<path d="M8468 11549 c-58 -5 -151 -17 -205 -28 -157 -32 -388 -116 -399 -146
-6 -13 123 -857 326 -2145 421 -2669 710 -4329 845 -4855 18 -71 32 -131 30
-133 -1 -2 -15 -4 -31 -5 -27 -2 -29 1 -52 78 -33 116 -112 491 -182 864 -208
1115 -647 3788 -925 5630 -52 345 -87 556 -95 561 -35 21 -374 49 -601 50
-400 0 -691 -55 -938 -179 -77 -39 -81 -43 -75 -69 4 -15 143 -439 309 -942
167 -503 327 -993 355 -1089 219 -738 882 -2432 1767 -4519 96 -227 173 -415
170 -418 -2 -3 -17 -6 -33 -7 -32 -2 -11 -47 -361 783 -786 1865 -1394 3432
-1603 4130 -29 96 -188 587 -355 1090 -167 503 -306 930 -310 948 l-7 32 -176
0 c-191 0 -442 -13 -587 -31 -165 -20 -349 -95 -457 -184 -101 -83 -100 -79
-38 -252 191 -531 669 -1533 1238 -2598 338 -632 516 -936 992 -1690 595 -942
1388 -2221 1406 -2269 4 -9 -5 -15 -28 -19 -18 -2 -33 -4 -34 -3 0 0 -90 147
-199 326 -431 706 -1110 1793 -1355 2170 -221 339 -547 903 -842 1455 -587
1097 -1056 2084 -1239 2603 l-54 154 -70 -7 c-117 -11 -457 -62 -526 -80 -35
-9 -91 -30 -125 -46 -68 -32 -144 -106 -144 -140 0 -23 239 -498 405 -804 278
-513 551 -965 833 -1380 257 -377 495 -701 1123 -1526 497 -651 931 -1229
1250 -1664 311 -423 779 -1073 785 -1090 6 -14 -34 -31 -55 -23 -5 1 -108 141
-230 310 -496 693 -1062 1455 -1716 2313 -844 1107 -1117 1485 -1437 1985
-297 466 -554 920 -865 1526 -141 277 -155 301 -176 296 -12 -3 -69 -25 -125
-48 -266 -111 -363 -257 -289 -434 26 -62 230 -400 415 -690 704 -1098 1424
-2030 2216 -2870 497 -527 1136 -1256 1688 -1925 113 -137 254 -306 312 -374
109 -127 110 -130 60 -145 -23 -7 -80 57 -489 554 -466 566 -1238 1444 -1589
1810 -858 893 -1781 2119 -2535 3368 -68 111 -126 202 -130 202 -4 0 -28 -13
-54 -30 -52 -33 -98 -91 -123 -155 l-16 -43 103 -184 c239 -427 601 -1018 715
-1169 334 -442 1189 -1453 1554 -1839 291 -308 938 -986 1650 -1730 361 -377
687 -718 725 -759 58 -61 85 -103 162 -250 60 -115 96 -174 105 -172 7 3 57
20 112 38 235 79 525 113 1029 120 421 6 393 10 426 -62 7 -16 17 -37 22 -45
5 -8 12 -23 15 -33 4 -9 13 -17 20 -17 8 0 14 -9 14 -20 0 -11 6 -20 13 -20 8
0 7 -4 -3 -10 -13 -8 -13 -10 2 -10 11 0 15 -5 12 -15 -4 -8 -2 -15 3 -15 6 0
21 -15 34 -32 27 -37 7 -34 259 -38 91 -1 157 -5 147 -9 -17 -6 -18 -8 -3 -20
14 -12 14 -15 2 -25 -18 -15 -30 -76 -14 -76 9 0 9 -3 0 -12 -16 -16 -16 -105
1 -111 10 -4 10 -6 0 -6 -7 -1 -13 -13 -13 -27 0 -14 3 -23 8 -21 4 3 5 -15 3
-40 -3 -39 -1 -45 13 -40 12 5 16 0 15 -21 -1 -16 -3 -20 -6 -10 -3 10 -10 15
-19 11 -13 -5 -13 -7 -2 -14 10 -7 10 -9 1 -9 -8 0 -13 -14 -13 -35 0 -21 5
-35 13 -35 8 0 9 -3 1 -8 -11 -7 -11 -22 1 -57 6 -16 5 -17 -4 -5 -9 13 -11
13 -11 -2 0 -10 5 -18 11 -18 9 0 9 -4 0 -14 -16 -19 -12 -96 6 -89 7 3 13 0
13 -6 0 -6 -7 -11 -16 -11 -13 0 -15 -6 -9 -28 4 -15 7 -38 6 -51 -1 -17 3
-22 14 -17 8 3 15 1 15 -4 0 -6 -6 -10 -14 -10 -17 0 -26 -95 -11 -112 7 -8 6
-9 -2 -4 -9 5 -13 0 -13 -14 0 -12 5 -18 10 -15 6 3 10 2 10 -3 0 -6 -6 -12
-14 -15 -8 -3 -207 -4 -442 -2 -453 4 -737 -4 -1049 -29 -248 -20 -295 -27
-267 -37 18 -7 193 -25 307 -32 l40 -2 125 -230 c69 -126 149 -281 179 -343
l53 -113 -7 -220 -8 -219 25 9 c13 5 57 19 97 31 l74 22 -6 105 -5 105 29 -28
c33 -32 69 -100 69 -132 0 -20 1 -21 46 -7 l45 13 -6 -286 c-9 -374 -11 -711
-5 -707 9 6 5 -170 -4 -184 -6 -10 -6 -12 2 -7 7 4 12 1 12 -8 0 -46 304 8
501 88 l66 27 6 292 c11 462 9 735 -5 739 -8 3 24 167 103 534 l115 529 35 7
c19 4 83 13 143 21 59 8 112 19 118 25 5 5 23 72 39 148 66 312 183 867 209
990 29 142 37 159 155 329 50 72 99 123 241 250 996 890 2067 1977 2850 2890
792 923 1383 1745 1793 2492 53 96 71 138 66 153 -8 24 -122 150 -137 150 -5
0 -28 -30 -51 -67 -492 -792 -1452 -2051 -2455 -3219 -396 -462 -1529 -1704
-2080 -2281 -186 -195 -194 -202 -225 -196 -18 3 -34 7 -36 9 -5 4 69 84 359
391 586 619 1572 1703 1950 2143 1002 1169 1894 2337 2423 3176 73 116 77 124
77 180 0 115 -71 209 -210 279 -78 39 -188 71 -200 58 -4 -4 -37 -63 -74 -130
-231 -427 -754 -1270 -1211 -1953 -936 -1399 -1928 -2679 -3070 -3963 -139
-157 -140 -158 -175 -152 -19 4 -37 8 -39 10 -2 2 55 68 126 147 1576 1740
3245 4041 4292 5917 l92 164 -33 54 c-63 104 -170 213 -248 253 -21 11 -78 32
-127 46 -75 22 -113 27 -253 31 l-166 5 -54 -128 c-69 -164 -334 -690 -519
-1034 -591 -1093 -1403 -2498 -2604 -4503 -587 -980 -568 -951 -621 -931 -11
4 -2 27 48 107 102 166 733 1218 1008 1682 1377 2321 2264 3905 2575 4599
l103 231 -42 39 c-157 144 -349 246 -548 292 -135 31 -578 27 -665 -6 -16 -6
-26 -25 -40 -77 -26 -99 -180 -562 -275 -828 -433 -1213 -1273 -3350 -2301
-5853 l-63 -153 -31 7 c-16 3 -31 7 -33 9 -1 1 28 73 64 161 805 1948 1749
4335 2179 5514 186 509 380 1080 411 1212 6 26 2 29 -118 86 -265 128 -481
188 -759 213 -132 12 -621 7 -680 -7 -26 -6 -27 -10 -48 -147 -34 -221 -171
-1030 -271 -1602 -266 -1522 -963 -5392 -974 -5402 -2 -2 -17 -3 -33 -1 l-29
3 198 1090 c618 3407 1058 5918 1058 6042 0 19 -11 26 -82 47 -410 125 -827
163 -1222 111 -135 -18 -324 -56 -406 -82 l-55 -18 -35 -3580 -35 -3580 -32
-3 c-30 -3 -33 -1 -33 25 0 15 16 1625 35 3577 19 1953 31 3554 27 3558 -5 5
-73 22 -153 38 -343 70 -737 106 -961 89z m1782 -8179 c0 -5 -4 -10 -10 -10
-5 0 -10 5 -10 10 0 6 5 10 10 10 6 0 10 -4 10 -10z m-3 -77 c-3 -10 -5 -2 -5
17 0 19 2 27 5 18 2 -10 2 -26 0 -35z m-20 -25 c-3 -7 -5 -2 -5 12 0 14 2 19
5 13 2 -7 2 -19 0 -25z m20 -45 c-3 -10 -5 -2 -5 17 0 19 2 27 5 18 2 -10 2
-26 0 -35z m0 -375 c-3 -8 -6 -5 -6 6 -1 11 2 17 5 13 3 -3 4 -12 1 -19z m0
-50 c-3 -8 -6 -5 -6 6 -1 11 2 17 5 13 3 -3 4 -12 1 -19z m0 -310 c-3 -8 -6
-5 -6 6 -1 11 2 17 5 13 3 -3 4 -12 1 -19z m-1147 -140 c0 -25 -3 -29 -10 -18
-13 20 -13 50 0 50 6 0 10 -15 10 -32z m773 -35 c4 -38 7 -120 6 -183 -1 -112
-1 -114 -15 -75 -8 22 -24 53 -37 69 -21 26 -31 29 -93 33 -38 2 -83 11 -101
19 -37 17 -76 6 -92 -25 -6 -11 -11 -61 -11 -111 0 -89 1 -93 30 -122 29 -29
40 -31 81 -14 12 5 18 0 22 -24 5 -20 17 -37 37 -48 34 -19 34 -19 -3 -140
l-22 -73 0 96 c0 94 -1 97 -29 122 -22 19 -36 23 -58 19 -34 -7 -84 -40 -97
-65 -12 -21 6 -110 26 -133 13 -15 10 -20 -34 -52 -26 -20 -51 -36 -55 -36 -4
0 -20 12 -36 28 -15 15 -38 34 -50 42 -23 15 -23 19 -28 265 -2 138 -6 298 -8
357 l-5 108 222 3 c122 1 249 3 283 5 l61 2 6 -67z m207 -314 c-33 -151 -60
-278 -61 -284 -4 -39 -16 67 -13 123 2 56 15 109 65 256 35 101 65 184 66 182
2 -1 -24 -126 -57 -277z m-283 -491 c-3 -8 -6 -5 -6 6 -1 11 2 17 5 13 3 -3 4
-12 1 -19z m-15 -74 c-5 -26 -14 -40 -26 -42 -16 -3 -17 1 -11 30 9 42 14 50
26 43 5 -4 9 -1 9 6 0 7 2 10 5 7 3 -3 2 -23 -3 -44z"/>
<path d="M10424 456 c-17 -8 -48 -29 -69 -47 -104 -91 -101 -261 6 -352 154
-132 392 -24 392 178 0 97 -50 176 -138 216 -48 22 -146 24 -191 5z m203 -63
c57 -46 78 -88 78 -158 0 -71 -21 -112 -78 -159 -35 -28 -46 -31 -106 -31 -56
0 -74 4 -108 27 -118 78 -108 273 19 337 63 32 144 26 195 -16z"/>
<path d="M10438 364 c-5 -4 -8 -65 -8 -136 0 -121 1 -128 20 -128 18 0 20 7
20 55 0 54 1 55 28 55 36 0 57 -24 66 -72 6 -32 11 -38 32 -38 23 0 24 2 18
37 -10 54 -22 83 -35 83 -6 0 1 14 15 31 49 58 10 111 -86 117 -35 2 -66 0
-70 -4z m116 -50 c9 -8 16 -19 16 -24 0 -20 -34 -40 -66 -40 -33 0 -34 1 -34
40 0 39 1 40 34 40 19 0 42 -7 50 -16z"/>
</g>
</svg>
