<?xml version="1.0" standalone="no"?>
<!DOCTYPE svg PUBLIC "-//W3C//DTD SVG 20010904//EN"
 "http://www.w3.org/TR/2001/REC-SVG-20010904/DTD/svg10.dtd">
<svg version="1.0" xmlns="http://www.w3.org/2000/svg"
 width="300.000000pt" height="300.000000pt" viewBox="0 0 300.000000 300.000000"
 preserveAspectRatio="xMidYMid meet">
<metadata>
Created by potrace 1.11, written by Peter Selinger 2001-2013
</metadata>
<g transform="translate(0.000000,300.000000) scale(0.100000,-0.100000)"
fill="#000000" stroke="none">
<path d="M509 2485 c-1 0 -2 -298 -3 -661 l-1 -661 47 31 c72 48 272 189 278
195 3 3 17 12 33 20 15 8 27 18 27 23 0 4 4 8 10 8 5 0 18 7 27 15 10 8 36 27
58 43 l40 29 0 146 0 147 25 1 c67 2 142 1 146 -4 3 -2 5 -41 6 -86 0 -44 2
-81 4 -81 1 0 9 6 16 13 7 7 36 27 63 44 28 18 56 37 63 43 7 6 43 32 80 57
96 66 126 87 132 93 3 3 32 23 65 45 33 22 68 47 78 56 53 48 58 47 164 -27
54 -37 100 -70 103 -73 3 -3 13 -10 22 -16 9 -5 110 -75 224 -155 114 -80 219
-153 233 -162 l26 -17 -1 462 c-1 254 -2 464 -3 467 -1 4 -1947 9 -1962 5z"/>
<path d="M1590 1743 c-96 -68 -206 -145 -245 -171 -38 -26 -77 -52 -85 -59 -8
-7 -33 -25 -56 -40 -23 -15 -127 -89 -233 -163 -106 -74 -199 -139 -208 -145
-23 -14 -33 -21 -68 -48 -16 -13 -75 -54 -130 -93 -54 -38 -126 -88 -160 -112
-33 -24 -72 -51 -87 -60 -51 -31 -29 -30 55 2 45 18 94 36 108 39 l25 6 0
-185 c-1 -102 1 -189 4 -193 6 -9 1320 -10 1320 -1 0 4 -15 13 -33 22 -47 22
-98 68 -90 80 3 6 1 8 -5 4 -19 -12 -96 113 -107 175 -3 13 -9 46 -14 73 -5
27 -7 54 -5 60 2 6 6 29 8 51 17 136 60 211 183 315 30 25 147 74 205 85 27 6
149 18 163 17 53 -4 114 -14 174 -27 69 -16 71 -17 72 -48 0 -18 2 -40 4 -51
2 -10 6 -45 9 -78 4 -55 3 -59 -16 -56 -14 2 -26 18 -39 53 -21 57 -66 105
-123 133 -75 37 -236 24 -294 -23 -111 -89 -153 -175 -166 -337 -2 -26 -1 -50
1 -52 3 -2 6 -26 8 -53 7 -97 74 -229 142 -279 78 -58 175 -80 256 -59 71 18
77 30 76 169 -1 109 -3 121 -23 141 -21 21 -98 41 -117 30 -5 -4 -9 5 -9 18
l0 23 178 -1 c97 0 184 1 192 3 13 3 16 31 15 193 0 104 1 189 2 189 1 0 33
-12 70 -26 38 -14 73 -27 78 -28 6 -2 21 -8 35 -13 14 -6 27 -9 29 -7 5 5 7 4
-65 51 -59 39 -79 53 -217 153 -37 28 -70 50 -73 50 -2 0 -38 25 -78 55 -41
30 -86 60 -100 67 -14 6 -26 17 -26 25 0 7 -3 12 -7 11 -7 -2 -77 43 -189 122
-12 8 -55 38 -95 66 l-74 51 -175 -124z m-509 -698 c0 -19 1 -52 2 -72 l0 -38
-66 -3 c-65 -3 -67 -2 -63 20 3 13 5 28 5 33 1 14 52 70 76 83 34 19 45 14 46
-23z m126 15 c38 -23 60 -55 69 -98 l7 -32 -67 0 -66 0 0 75 c0 83 4 87 57 55z
m-128 -212 c3 -10 4 -39 3 -66 l-4 -50 -64 1 -64 1 0 66 0 67 62 -1 c48 -1 62
-5 67 -18z m201 11 c4 -6 5 -94 1 -120 -1 -4 -30 -7 -66 -6 l-65 1 0 61 c0 34
2 64 4 66 8 7 121 6 126 -2z"/>
<path d="M2435 860 c-37 -15 -41 -31 -40 -170 3 -195 -1 -178 43 -176 l37 1 1
165 c0 202 1 198 -41 180z"/>
</g>
</svg>
